<svg width="335" height="83" viewBox="0 0 335 83" fill="none" xmlns="http://www.w3.org/2000/svg">
<path d="M69.72 69.99L69.0163 69.2795L69.72 69.99ZM12.96 69.99L13.6637 69.2795L12.96 69.99ZM25.28 58L24.5729 58.7071L24.579 58.7131L25.28 58ZM57.29 58L56.5889 57.2868L56.5829 57.2929L57.29 58ZM57.29 25L56.5829 25.7071L56.589 25.7131L57.29 25ZM25.28 25L24.5789 24.2868L24.5729 24.2929L25.28 25ZM69.0163 69.2795C61.4341 76.7902 52.2286 80.54 41.34 80.54V82.54C52.7447 82.54 62.4593 78.5898 70.4238 70.7004L69.0163 69.2795ZM41.34 80.54C30.4514 80.54 21.2459 76.7902 13.6637 69.2795L12.2563 70.7004C20.2207 78.5898 29.9353 82.54 41.34 82.54V80.54ZM13.6637 69.2795C6.08672 61.774 2.3 52.5361 2.3 41.5H0.3C0.3 53.0506 4.28661 62.806 12.2563 70.7004L13.6637 69.2795ZM2.3 41.5C2.3 30.4639 6.08672 21.226 13.6637 13.7204L12.2563 12.2995C4.28661 20.194 0.3 29.9494 0.3 41.5H2.3ZM13.6637 13.7204C21.2459 6.2098 30.4514 2.46 41.34 2.46V0.459995C29.9353 0.459995 20.2207 4.41019 12.2563 12.2995L13.6637 13.7204ZM41.34 2.46C52.2286 2.46 61.4341 6.2098 69.0163 13.7204L70.4238 12.2995C62.4593 4.41019 52.7447 0.459995 41.34 0.459995V2.46ZM69.0163 13.7204C76.5933 21.226 80.38 30.4639 80.38 41.5H82.38C82.38 29.9494 78.3934 20.194 70.4238 12.2995L69.0163 13.7204ZM80.38 41.5C80.38 52.5361 76.5933 61.774 69.0163 69.2795L70.4238 70.7004C78.3934 62.806 82.38 53.0506 82.38 41.5H80.38ZM24.579 58.7131C29.1031 63.1606 34.7127 65.38 41.34 65.38V63.38C35.2073 63.38 30.1103 61.3461 25.981 57.2869L24.579 58.7131ZM41.34 65.38C47.9674 65.38 53.544 63.1602 57.9971 58.7071L56.5829 57.2929C52.5294 61.3464 47.4726 63.38 41.34 63.38V65.38ZM57.991 58.7131C62.5313 54.2499 64.78 48.4819 64.78 41.5H62.78C62.78 48.0115 60.7021 53.2435 56.589 57.2869L57.991 58.7131ZM64.78 41.5C64.78 34.5181 62.5313 28.7501 57.991 24.2869L56.589 25.7131C60.7021 29.7565 62.78 34.9885 62.78 41.5H64.78ZM57.9971 24.2929C53.544 19.8398 47.9674 17.62 41.34 17.62V19.62C47.4726 19.62 52.5294 21.6536 56.5829 25.7071L57.9971 24.2929ZM41.34 17.62C34.7127 17.62 29.1031 19.8394 24.579 24.2869L25.981 25.7131C30.1103 21.6539 35.2073 19.62 41.34 19.62V17.62ZM24.5729 24.2929C20.1085 28.7573 17.9 34.5234 17.9 41.5H19.9C19.9 34.9833 21.9448 29.7494 25.9871 25.7071L24.5729 24.2929ZM17.9 41.5C17.9 48.4766 20.1085 54.2427 24.5729 58.7071L25.9871 57.2929C21.9448 53.2506 19.9 48.0167 19.9 41.5H17.9ZM160.589 2.99999V1.99999H159.589V2.99999H160.589ZM178.189 2.99999H179.189V1.99999H178.189V2.99999ZM178.189 80V81H179.189V80H178.189ZM160.589 80H159.589V81H160.589V80ZM160.589 49.42H161.589V48.42H160.589V49.42ZM136.389 49.42V48.42H135.389V49.42H136.389ZM136.389 80V81H137.389V80H136.389ZM118.789 80H117.789V81H118.789V80ZM118.789 2.99999V1.99999H117.789V2.99999H118.789ZM136.389 2.99999H137.389V1.99999H136.389V2.99999ZM136.389 32.48H135.389V33.48H136.389V32.48ZM160.589 32.48V33.48H161.589V32.48H160.589ZM160.589 3.99999H178.189V1.99999H160.589V3.99999ZM177.189 2.99999V80H179.189V2.99999H177.189ZM178.189 79H160.589V81H178.189V79ZM161.589 80V49.42H159.589V80H161.589ZM160.589 48.42H136.389V50.42H160.589V48.42ZM135.389 49.42V80H137.389V49.42H135.389ZM136.389 79H118.789V81H136.389V79ZM119.789 80V2.99999H117.789V80H119.789ZM118.789 3.99999H136.389V1.99999H118.789V3.99999ZM135.389 2.99999V32.48H137.389V2.99999H135.389ZM136.389 33.48H160.589V31.48H136.389V33.48ZM161.589 32.48V2.99999H159.589V32.48H161.589ZM240.357 80L239.404 80.3032L239.625 81H240.357V80ZM236.507 67.9L237.46 67.5968L237.238 66.9H236.507V67.9ZM207.907 67.9V66.9H207.175L206.954 67.5968L207.907 67.9ZM204.057 80V81H204.788L205.01 80.3032L204.057 80ZM184.807 80L183.86 79.6781L183.41 81H184.807V80ZM210.987 2.99999V1.99999H210.27L210.04 2.67809L210.987 2.99999ZM233.427 2.99999L234.373 2.67809L234.143 1.99999H233.427V2.99999ZM259.607 80V81H261.003L260.553 79.6781L259.607 80ZM213.187 51.4L212.234 51.096L211.818 52.4H213.187V51.4ZM231.227 51.4V52.4H232.595L232.179 51.096L231.227 51.4ZM222.207 23.13L223.159 22.826L222.207 19.8402L221.254 22.826L222.207 23.13ZM241.31 79.6968L237.46 67.5968L235.554 68.2032L239.404 80.3032L241.31 79.6968ZM236.507 66.9H207.907V68.9H236.507V66.9ZM206.954 67.5968L203.104 79.6968L205.01 80.3032L208.86 68.2032L206.954 67.5968ZM204.057 79H184.807V81H204.057V79ZM185.753 80.3219L211.933 3.3219L210.04 2.67809L183.86 79.6781L185.753 80.3219ZM210.987 3.99999H233.427V1.99999H210.987V3.99999ZM232.48 3.3219L258.66 80.3219L260.553 79.6781L234.373 2.67809L232.48 3.3219ZM259.607 79H240.357V81H259.607V79ZM213.187 52.4H231.227V50.4H213.187V52.4ZM232.179 51.096L223.159 22.826L221.254 23.434L230.274 51.704L232.179 51.096ZM221.254 22.826L212.234 51.096L214.139 51.704L223.159 23.434L221.254 22.826ZM271.409 70.1L270.695 70.8003L270.702 70.8071L271.409 70.1ZM271.409 13.01L270.699 12.3063L270.699 12.3063L271.409 13.01ZM319.259 6.3L318.777 7.17625L318.786 7.18082L319.259 6.3ZM333.119 19.28L333.621 20.1451L334.508 19.631L333.972 18.7572L333.119 19.28ZM317.939 28.08L317.067 28.5692L317.563 29.4538L318.441 28.9451L317.939 28.08ZM310.679 21.15L310.208 22.0318L310.216 22.0361L310.224 22.0402L310.679 21.15ZM283.729 24.89L283.016 24.1891L283.01 24.1956L283.729 24.89ZM283.729 58.11L283.01 58.8044L283.016 58.8108L283.729 58.11ZM310.679 61.85L310.216 60.9637L310.208 60.9682L310.679 61.85ZM317.939 54.92L318.441 54.0549L317.556 53.5419L317.063 54.4381L317.939 54.92ZM333.119 63.72L333.977 64.2345L334.499 63.364L333.621 62.8549L333.119 63.72ZM319.369 76.81L319.843 77.6909L319.851 77.6862L319.369 76.81ZM300.119 80.54C288.851 80.54 279.542 76.8185 272.116 69.3929L270.702 70.8071C278.53 78.6349 288.361 82.54 300.119 82.54V80.54ZM272.123 69.3997C264.764 61.8975 261.079 52.6204 261.079 41.5H259.079C259.079 53.1129 262.948 62.9025 270.695 70.8003L272.123 69.3997ZM261.079 41.5C261.079 30.3797 264.764 21.1412 272.12 13.7137L270.699 12.3063C262.948 20.1321 259.079 29.887 259.079 41.5H261.079ZM272.12 13.7137C279.546 6.21606 288.854 2.46 300.119 2.46V0.459995C288.358 0.459995 278.526 4.40393 270.699 12.3063L272.12 13.7137ZM300.119 2.46C306.849 2.46 313.063 4.03321 318.777 7.17621L319.741 5.42378C313.722 2.11345 307.176 0.459995 300.119 0.459995V2.46ZM318.786 7.18082C324.502 10.2533 328.989 14.4586 332.267 19.8028L333.972 18.7572C330.503 13.1014 325.75 8.6534 319.733 5.41917L318.786 7.18082ZM332.618 18.4149L317.438 27.2149L318.441 28.9451L333.621 20.1451L332.618 18.4149ZM318.811 27.5907C317.026 24.4074 314.458 21.9602 311.135 20.2598L310.224 22.0402C313.207 23.5665 315.48 25.7393 317.067 28.5692L318.811 27.5907ZM311.151 20.2682C307.84 18.4973 304.156 17.62 300.119 17.62V19.62C303.856 19.62 307.212 20.4293 310.208 22.0318L311.151 20.2682ZM300.119 17.62C293.079 17.62 287.342 19.7863 283.016 24.1892L284.443 25.5908C288.33 21.6337 293.52 19.62 300.119 19.62V17.62ZM283.01 24.1956C278.764 28.5962 276.679 34.3993 276.679 41.5H278.679C278.679 34.814 280.628 29.5438 284.449 25.5844L283.01 24.1956ZM276.679 41.5C276.679 48.6007 278.764 54.4038 283.01 58.8044L284.449 57.4156C280.628 53.4562 278.679 48.186 278.679 41.5H276.679ZM283.016 58.8108C287.342 63.2137 293.079 65.38 300.119 65.38V63.38C293.52 63.38 288.33 61.3663 284.443 57.4092L283.016 58.8108ZM300.119 65.38C304.156 65.38 307.84 64.5027 311.151 62.7318L310.208 60.9682C307.212 62.5706 303.856 63.38 300.119 63.38V65.38ZM311.143 62.7362C314.528 60.9667 317.099 58.5229 318.816 55.4019L317.063 54.4381C315.553 57.1838 313.284 59.36 310.216 60.9638L311.143 62.7362ZM317.438 55.7851L332.618 64.5851L333.621 62.8549L318.441 54.0549L317.438 55.7851ZM332.262 63.2055C329.057 68.547 324.606 72.7885 318.887 75.9338L319.851 77.6862C325.866 74.3782 330.582 69.893 333.977 64.2345L332.262 63.2055ZM318.896 75.9292C313.182 79.0006 306.929 80.54 300.119 80.54V82.54C307.243 82.54 313.824 80.926 319.843 77.6908L318.896 75.9292Z" fill="#C2C2C2" fill-opacity="0.3"/>
</svg>
